HIERARCHY
ROOT Hips
{
 OFFSET 0.000000 0.000000 0.000000
 CHANNELS 6 Xposition Yposition Zposition Yrotation Xrotation Zrotation
 JOINT Chest
 {
  OFFSET 0.000000 9.585900 0.002600
  CHANNELS 3 Yrotation Xrotation Zrotation
  JOINT Chest2
  {
   OFFSET 0.000000 9.601200 -0.005300
   CHANNELS 3 Yrotation Xrotation Zrotation
   JOINT Chest3
   {
    OFFSET 0.000000 9.561800 0.000000
    CHANNELS 3 Yrotation Xrotation Zrotation
    JOINT Chest4
    {
     OFFSET 0.000000 9.552100 0.000000
     CHANNELS 3 Yrotation Xrotation Zrotation
     JOINT Neck
     {
      OFFSET 0.000000 14.453000 0.000000
      CHANNELS 3 Yrotation Xrotation Zrotation
      JOINT Head
      {
       OFFSET 0.000000 8.936500 -0.011300
       CHANNELS 3 Yrotation Xrotation Zrotation
       End Site
       {
        OFFSET 0.000000 17.073600 -0.006000
       }
      }
     }
     JOINT RightCollar
     {
      OFFSET -2.921100 9.558500 0.000000
      CHANNELS 3 Yrotation Xrotation Zrotation
      JOINT RightShoulder
      {
       OFFSET -13.519700 0.000000 0.000000
       CHANNELS 3 Yrotation Xrotation Zrotation
       JOINT RightElbow
       {
        OFFSET 0.000000 -29.696600 0.000000
        CHANNELS 3 Yrotation Xrotation Zrotation
        JOINT RightWrist
        {
         OFFSET 0.000000 -24.004700 0.000000
         CHANNELS 3 Yrotation Xrotation Zrotation
         End Site
         {
          OFFSET 0.000000 -17.728500 0.000000
         }
        }
       }
      }
     }
     JOINT LeftCollar
     {
      OFFSET 2.921100 9.558500 0.000000
      CHANNELS 3 Yrotation Xrotation Zrotation
      JOINT LeftShoulder
      {
       OFFSET 13.519700 0.000000 0.000000
       CHANNELS 3 Yrotation Xrotation Zrotation
       JOINT LeftElbow
       {
        OFFSET 0.000000 -29.696600 0.000000
        CHANNELS 3 Yrotation Xrotation Zrotation
        JOINT LeftWrist
        {
         OFFSET 0.000000 -24.004700 0.000000
         CHANNELS 3 Yrotation Xrotation Zrotation
         End Site
         {
          OFFSET 0.000000 -17.728500 0.000000
         }
        }
       }
      }
     }
    }
   }
  }
 }
 JOINT RightHip
 {
  OFFSET -7.771700 -0.012900 -0.001300
  CHANNELS 3 Yrotation Xrotation Zrotation
  JOINT RightKnee
  {
   OFFSET 0.000000 -40.869800 0.001200
   CHANNELS 3 Yrotation Xrotation Zrotation
   JOINT RightAnkle
   {
    OFFSET 0.000000 -39.717900 0.002100
    CHANNELS 3 Yrotation Xrotation Zrotation
    JOINT RightToe
    {
     OFFSET 0.000000 -4.965400 11.033500
     CHANNELS 3 Yrotation Xrotation Zrotation
     End Site
     {
      OFFSET 0.000000 -1.423100 5.872300
     }
    }
   }
  }
 }
 JOINT LeftHip
 {
  OFFSET 7.771700 -0.012900 -0.001300
  CHANNELS 3 Yrotation Xrotation Zrotation
  JOINT LeftKnee
  {
   OFFSET 0.000000 -40.869800 0.001200
   CHANNELS 3 Yrotation Xrotation Zrotation
   JOINT LeftAnkle
   {
    OFFSET 0.000000 -39.717900 0.002100
    CHANNELS 3 Yrotation Xrotation Zrotation
    JOINT LeftToe
    {
     OFFSET 0.000000 -4.965400 11.033500
     CHANNELS 3 Yrotation Xrotation Zrotation
     End Site
     {
      OFFSET 0.000000 -1.423100 5.872300
     }
    }
   }
  }
 }
}
MOTION
Frames: 5
Frame Time: 0.008333
-12.029489 57.721056 49.227909 -179.359442 -29.948860 -0.913670 2.437579 20.520017 4.374209 0.198600 2.683457 0.302911 0.332361 4.383708 0.498440 1.621064 17.677151 2.227778 -0.957633 14.586976 -1.135331 -1.366038 -8.709802 -1.766672 4.822722 -3.841415 -2.163110 15.165806 -17.894650 -20.934646 134.740315 -73.936734 -93.983172 15.187616 -19.605877 -46.574974 -8.112314 -5.118034 -3.092041 0.136877 -9.442602 0.462630 29.210420 -31.052604 -73.802274 6.497664 5.644084 15.967447 7.407725 -41.469735 -3.146905 -1.669135 67.616521 -4.425075 4.959674 5.336891 7.879516 -0.062287 0.148249 -0.021557 -10.218775 -49.613196 2.842975 25.602957 69.542783 24.483788 -12.041332 33.896572 1.211430 0.253718 -21.282843 -6.806749
-12.028865 57.720689 49.226175 -179.354046 -29.948887 -0.913877 2.430725 20.517801 4.368675 0.201444 2.682215 0.304300 0.331944 4.383005 0.498451 1.615126 17.673068 2.225411 -0.951908 14.591405 -1.136277 -1.361718 -8.702288 -1.766433 4.828721 -3.835224 -2.160296 15.168897 -17.900028 -20.936192 134.722978 -73.942620 -93.965695 15.190368 -19.612535 -46.566488 -8.106194 -5.115774 -3.090547 0.139333 -9.440694 0.468218 29.212232 -31.052755 -73.807898 6.500484 5.647013 15.967956 7.411616 -41.470517 -3.151407 -1.666591 67.621460 -4.419261 4.948545 5.340061 7.881961 -0.057709 0.142998 -0.025078 -10.215354 -49.614301 2.835514 25.609662 69.542525 24.494833 -12.039768 33.896675 1.201655 0.249892 -21.286383 -6.796815
-12.027935 57.719996 49.225205 -179.353586 -29.942858 -0.913371 2.428708 20.510863 4.366042 0.198651 2.678310 0.300980 0.331790 4.381789 0.497849 1.619420 17.678147 2.229625 -0.950134 14.590640 -1.137996 -1.354409 -8.697561 -1.767445 4.826385 -3.841373 -2.158080 15.174652 -17.895498 -20.936530 134.734227 -73.940735 -93.966610 15.192448 -19.609453 -46.573931 -8.095983 -5.122090 -3.089125 0.132780 -9.435302 0.469315 29.213716 -31.058996 -73.808672 6.505756 5.650690 15.965926 7.414694 -41.476701 -3.153991 -1.651067 67.623867 -4.402250 4.941589 5.339009 7.879017 -0.057918 0.142985 -0.023652 -10.193012 -49.623507 2.819013 25.603208 69.544111 24.504019 -12.041324 33.902425 1.201646 0.247280 -21.293006 -6.796288
-12.027045 57.720246 49.222898 -179.353057 -29.945537 -0.912407 2.427513 20.511363 4.363850 0.199554 2.676965 0.301497 0.331711 4.381718 0.497413 1.618077 17.677824 2.226582 -0.948176 14.593125 -1.135884 -1.349980 -8.694167 -1.766804 4.822924 -3.842639 -2.154164 15.186630 -17.899607 -20.939720 134.743445 -73.946398 -93.976753 15.192991 -19.604603 -46.569539 -8.094848 -5.120241 -3.085670 0.133502 -9.435193 0.473328 29.215349 -31.061135 -73.809072 6.504233 5.655882 15.966609 7.423117 -41.472474 -3.160276 -1.642783 67.626478 -4.386994 4.937779 5.335220 7.874008 -0.059168 0.144455 -0.021588 -10.152877 -49.622938 2.784552 25.599143 69.542631 24.530706 -12.053338 33.904685 1.184959 0.248098 -21.298920 -6.788226
-12.026424 57.720885 49.220224 -179.352919 -29.950565 -0.909159 2.427809 20.511587 4.361778 0.198142 2.680519 0.300861 0.331651 4.381664 0.497252 1.613777 17.668233 2.219346 -0.943575 14.602626 -1.131526 -1.345139 -8.686468 -1.763891 4.825948 -3.837606 -2.146004 15.189789 -17.902213 -20.941644 134.771815 -73.944290 -93.990371 15.193811 -19.590149 -46.575833 -8.093029 -5.113897 -3.079195 0.140673 -9.437647 0.473840 29.211378 -31.055433 -73.810948 6.505724 5.657685 15.971379 7.431365 -41.466042 -3.166654 -1.643708 67.629639 -4.382715 4.934579 5.332365 7.870153 -0.056840 0.143845 -0.019932 -10.142793 -49.618578 2.774082 25.619629 69.541472 24.554058 -12.059332 33.904765 1.186027 0.239792 -21.302934 -6.785868
